<svg class="pingpong" fill="white" xmlns="http://www.w3.org/2000/svg" version="1.1" x="0px" y="0px" viewBox="0 0 356 192.215" enable-background="new 0 0 356 192.215" xml:space="preserve">
  <path class="paddle" d="M160.193 148.471c-4.196 0.813-8.418 1.252-12.631 1.252 -0.001 0-0.002 0-0.003 0 -2.903 0-5.812-0.202-8.658-0.6L81.706 90.403c-2.461-21.77 6.724-44.558 25.273-62.624 15.735-15.326 35.131-23.766 54.616-23.766 17.739 0 33.922 6.988 46.8 20.209 13.57 13.932 20.245 31.937 18.794 50.7 -0.275 3.554-0.84 7.096-1.668 10.602h4.114c0.759-3.406 1.287-6.843 1.554-10.293 1.54-19.929-5.534-39.038-19.921-53.808C197.619 7.408 180.442 0 161.595 0c-20.537 0-40.927 8.845-57.416 24.904 -19.644 19.134-29.258 43.43-26.376 66.657l0.083 0.67 1.692 1.737c9.053 30.855 5.889 33.246-30.763 60.768 -3.39 2.545-7.056 5.299-10.969 8.268 -0.696 0.498-1.125 1.287-1.209 2.223 -0.354 3.966 5.9 11.959 10.19 16.364 4.209 4.322 11.822 10.625 15.862 10.624 0.077 0 0.154-0.002 0.228-0.007 0.937-0.059 1.738-0.467 2.219-1.105 3.106-3.878 5.955-7.471 8.589-10.793 28.477-35.915 30.95-39.015 61.557-29.151l1.69 1.736 0.667 0.101c3.254 0.491 6.591 0.74 9.919 0.741 0.002 0 0.001 0 0.003 0 4.215 0 8.436-0.413 12.631-1.18V148.471zM70.58 177.818c-2.523 3.183-5.245 6.615-8.232 10.349 -1.728-0.373-6.969-3.546-12.647-9.376 -5.677-5.83-8.712-11.151-9.039-12.888 3.786-2.87 7.302-5.51 10.562-7.958 34.311-25.764 41.095-30.886 34.16-58.015l44.09 45.266C102.537 137.548 97.239 144.195 70.58 177.818z"/>
  <g class="text">
    <path d="M192.877 94.827h14.688c8.588 0 14.151 4.441 14.151 11.956v0.097c0 8.102-6.198 12.346-14.639 12.346h-4.734v9.759h-9.467V94.827zM206.882 111.809c3.319 0 5.417-1.806 5.417-4.49v-0.097c0-2.928-2.098-4.441-5.465-4.441h-4.489v9.028H206.882z"/>
    <path d="M228.408 94.827h9.467v34.158h-9.467V94.827z"/>
    <path d="M246.564 94.827h8.832l14.054 18.056V94.827h9.369v34.158h-8.247l-14.639-18.738v18.738h-9.369V94.827z"/>
    <path d="M286.195 112.004v-0.098c0-9.954 7.808-17.761 18.347-17.761 6.003 0 10.248 1.805 13.859 4.928l-5.563 6.735c-2.44-2.051-4.831-3.221-8.247-3.221 -4.929 0-8.735 4.099-8.735 9.32v0.098c0 5.563 3.855 9.515 9.272 9.515 2.342 0 4.099-0.488 5.465-1.415v-4.148h-6.685v-6.93h15.664v15.323c-3.611 3.025-8.588 5.318-14.834 5.318C294.101 129.668 286.195 122.349 286.195 112.004z"/>
    <path d="M168.279 134.894h14.688c8.588 0 14.151 4.441 14.151 11.956v0.097c0 8.102-6.198 12.346-14.639 12.346h-4.734v9.759h-9.467V134.894zM182.283 151.876c3.319 0 5.417-1.806 5.417-4.49v-0.097c0-2.928-2.098-4.441-5.465-4.441h-4.489v9.028H182.283z"/>
    <path d="M202.444 152.071v-0.098c0-9.808 7.905-17.761 18.446-17.761 10.54 0 18.347 7.856 18.347 17.665v0.097c0 9.808-7.905 17.763-18.446 17.763C210.251 169.736 202.444 161.88 202.444 152.071zM229.526 152.071v-0.098c0-4.977-3.514-9.222-8.735-9.222 -5.221 0-8.686 4.195-8.686 9.125v0.097c0 4.929 3.562 9.223 8.784 9.223C226.062 161.196 229.526 156.999 229.526 152.071z"/>
    <path d="M246.564 134.894h8.832l14.054 18.056v-18.056h9.369v34.158h-8.247l-14.639-18.738v18.738h-9.369V134.894z"/>
    <path d="M286.195 152.071v-0.098c0-9.954 7.808-17.761 18.347-17.761 6.003 0 10.248 1.805 13.859 4.928l-5.563 6.734c-2.44-2.051-4.831-3.221-8.247-3.221 -4.929 0-8.735 4.099-8.735 9.32v0.098c0 5.563 3.855 9.515 9.272 9.515 2.342 0 4.099-0.488 5.465-1.415v-4.148h-6.685v-6.93h15.664v15.323c-3.611 3.025-8.588 5.318-14.834 5.318C294.101 169.736 286.195 162.416 286.195 152.071z"/>
  </g>
  <path class="pulse" d="M145.063 118.317c-6.738 0.002-8.807-14.822-11.196-31.938 -1.883-13.493-4.228-30.285-9.274-30.285 -4.403 0-6.731 8.433-8.981 16.589 -2.583 9.36-5.254 19.039-11.784 19.039 -5.402 0-8.119-7.293-10.994-15.015 -2.626-7.049-5.34-14.339-9.771-14.339 -4.145 0-7.456 5.517-10.657 10.853 -3.044 5.073-5.918 9.864-9.842 10.945 -4.96 1.372-8.775-2.75-12.462-6.732 -2.744-2.963-5.582-6.027-8.807-6.813 -2.988-0.73-6.086 1.603-9.368 4.07 -3.428 2.577-6.972 5.242-11.16 5.242H0v-2.006h20.766c3.518 0 6.79-2.46 9.954-4.839 3.51-2.639 7.138-5.366 11.049-4.416 3.812 0.929 6.858 4.218 9.804 7.4 3.431 3.704 6.673 7.204 10.458 6.161 3.149-0.868 5.948-5.533 8.655-10.044 3.489-5.814 7.096-11.827 12.377-11.827 5.825 0 8.787 7.953 11.651 15.645 2.51 6.741 5.106 13.709 9.115 13.709 5.002 0 7.467-8.93 9.85-17.567 2.563-9.288 4.984-18.062 10.915-18.062 6.792 0 8.863 14.836 11.261 32.014 1.904 13.637 4.303 30.646 9.425 30.2 5.511-0.436 7.443-21.82 9.147-40.687 2.107-23.329 3.927-43.477 11.698-43.477 6.405 0 8.914 13.298 11.571 27.378 2.227 11.802 4.752 25.179 9.308 25.698 4.641 0.524 7.383-6.544 10.036-13.381 2.769-7.136 5.385-13.878 10.501-14.472 5.681-0.667 9.032 7.219 12.26 14.839 2.622 6.189 5.333 12.589 8.745 13.015 3.524 0.442 6.504-3.912 9.659-8.521 3.147-4.596 6.401-9.35 10.827-10.043 4.723-0.738 8.295 3.851 11.75 8.29 2.896 3.72 5.89 7.568 9.283 7.95 3.757 0.424 7.055-2.211 10.544-5.001 3.054-2.442 6.213-4.968 9.943-5.592 3.804-0.641 6.843 0.87 10.061 2.465 3.14 1.557 6.387 3.166 10.871 3.166H356v2.006h-44.517c-4.954 0-8.57-1.793-11.761-3.375 -3.045-1.511-5.675-2.813-8.838-2.283 -3.216 0.539-6.168 2.899-9.023 5.18 -3.656 2.923-7.439 5.946-12.021 5.429 -4.233-0.477-7.491-4.664-10.642-8.712 -3.24-4.164-6.302-8.105-9.856-7.54 -3.57 0.558-6.576 4.948-9.482 9.193 -3.356 4.902-6.835 9.983-11.563 9.379 -4.56-0.569-7.369-7.201-10.344-14.223 -2.941-6.94-5.983-14.114-10.182-13.629 -3.913 0.455-6.429 6.936-8.862 13.205 -2.928 7.547-5.954 15.373-12.132 14.648 -6.027-0.685-8.468-13.622-11.053-27.319 -2.277-12.067-4.857-25.743-9.6-25.743 -5.938 0-8.024 23.095-9.7 41.652 -2.033 22.502-3.788 41.936-10.986 42.506C145.312 118.312 145.186 118.317 145.063 118.317z"/>
</svg>