<svg xmlns="http://www.w3.org/2000/svg" width="16" height="16" viewBox="0 0 16 16"><path d="M0 8.694c0 .725.068 1.38.203 1.968s.323 1.097.563 1.53.545.814.915 1.142c.37.33.773.597 1.206.806s.927.378 1.483.51c.555.13 1.122.22 1.7.273S7.287 15 7.98 15c.7 0 1.338-.025 1.917-.077s1.148-.143 1.706-.274 1.055-.3 1.49-.51c.436-.21.84-.477 1.213-.806s.68-.71.923-1.142.43-.943.566-1.53c.136-.587.203-1.243.203-1.968 0-1.294-.434-2.412-1.3-3.357.047-.125.09-.267.13-.426s.075-.385.11-.68c.033-.295.02-.635-.04-1.02s-.17-.78-.333-1.182l-.117-.023c-.083-.016-.22-.012-.41.012s-.413.07-.666.14c-.253.07-.58.207-.978.408s-.82.452-1.264.755c-.76-.21-1.807-.313-3.137-.313-1.325 0-2.368.104-3.13.313-.443-.303-.867-.554-1.27-.755s-.727-.336-.967-.407c-.24-.07-.464-.116-.673-.137s-.34-.026-.395-.02-.098.018-.13.028c-.16.402-.272.795-.332 1.18s-.073.727-.04 1.022.07.522.11.68c.04.16.083.302.13.427-.866.944-1.3 2.063-1.3 3.357zm1.964 1.964c0-.75.342-1.44 1.025-2.066.202-.188.44-.33.71-.426s.58-.15.92-.164c.342-.013.67-.01.982.008s.7.043 1.158.074c.46.03.855.047 1.19.047s.73-.015 1.188-.046c.46-.03.845-.056 1.158-.074s.64-.02.982-.008c.342.013.648.068.92.164s.507.24.71.426c.684.616 1.026 1.304 1.026 2.066 0 .45-.056.846-.168 1.193s-.256.64-.43.873-.417.434-.728.6c-.31.163-.613.29-.908.38s-.673.157-1.134.206c-.462.05-.874.08-1.236.09s-.823.015-1.38.015S6.93 14.01 6.567 14c-.362-.01-.775-.04-1.236-.09s-.84-.12-1.134-.208c-.295-.09-.597-.215-.908-.38s-.553-.364-.728-.6c-.175-.234-.318-.524-.43-.87s-.168-.746-.168-1.194zM10 10.5c0-.828.448-1.5 1-1.5s1 .672 1 1.5-.448 1.5-1 1.5-1-.672-1-1.5zm-6 0C4 9.672 4.448 9 5 9s1 .672 1 1.5S5.552 12 5 12s-1-.672-1-1.5z" fill="#444"/></svg>