<svg xmlns="http://www.w3.org/2000/svg" width="16" height="16" viewBox="0 0 16 16"><path d="M16 3.038c-.59.26-1.22.438-1.885.517.678-.406 1.198-1.05 1.443-1.816-.634.375-1.337.648-2.085.796-.6-.638-1.452-1.037-2.396-1.037-1.813 0-3.283 1.47-3.283 3.28 0 .258.03.51.085.75C5.15 5.39 2.73 4.084 1.112 2.1.83 2.583.67 3.147.67 3.75c0 1.138.578 2.143 1.46 2.73-.54-.016-1.045-.164-1.488-.41v.04c0 1.59 1.132 2.918 2.633 3.22-.275.075-.565.115-.865.115-.212 0-.417-.02-.618-.06.418 1.305 1.63 2.254 3.066 2.28-1.123.88-2.54 1.406-4.077 1.406-.264 0-.525-.015-.782-.045 1.453.93 3.178 1.475 5.032 1.475 6.038 0 9.34-5.002 9.34-9.34 0-.142-.003-.284-.01-.425.642-.463 1.198-1.04 1.638-1.7z" fill="#444"/></svg>