<svg xmlns="http://www.w3.org/2000/svg" viewBox="0 0 319.7 218.1" enable-background="new 0 0 319.7 218.1"><circle stroke="#F16473" stroke-width="40" stroke-miterlimit="10" cx="109" cy="109.1" r="89" fill="none"/><path stroke="#fff" stroke-width="5" stroke-miterlimit="10" fill="none" d="M109 0v42.3"/><path fill="#19C1E2" d="M277.5 73.7h-18.7c-1.6 0-3-1.3-3-3V52c0-1.7 1.4-3 3-3h18.7c1.6 0 3 1.3 3 3v18.7c0 1.6-1.4 3-3 3z"/><text transform="translate(295.148 64.856)" fill="#3E4A57" font-family="'Gotham-Book'" font-size="12">0</text><path fill="#F16373" d="M277.5 124.2h-18.7c-1.6 0-3-1.3-3-3v-18.7c0-1.7 1.4-3 3-3h18.7c1.6 0 3 1.3 3 3v18.7c0 1.6-1.4 3-3 3z"/><text transform="translate(295.148 115.356)" fill="#3E4A57" font-family="'Gotham-Book'" font-size="12">200</text><path fill="#ECAE51" d="M277.5 174.7h-18.7c-1.6 0-3-1.4-3-3V153c0-1.6 1.4-3 3-3h18.7c1.6 0 3 1.4 3 3v18.7c0 1.6-1.4 3-3 3z"/><text transform="translate(295.148 165.856)" fill="#3E4A57" font-family="'Gotham-Book'" font-size="12">500</text><text transform="translate(64.331 112.723)" fill="#3E4A57" font-family="'Gotham-Book'" font-size="12">Count - checks</text><text transform="translate(96.232 201.501)" fill="#fff" font-family="'Gotham-Book'" font-size="12">99%</text></svg>